<?xml version="1.0" encoding="utf-8"?>
<svg viewBox="0 0 500 500" xmlns="http://www.w3.org/2000/svg">
  <rect style="paint-order: fill; stroke: rgb(0, 0, 0); fill: rgb(255, 255, 255); stroke-width: 0px;" x="186" y="186" width="128" height="128" rx="12" ry="12" transform="matrix(1, 0, 0, 1, 7.105427357601002e-15, 0)"/>
  <rect style="stroke: rgb(0, 0, 0); stroke-width: 0px;" x="210.986" y="210.2" width="78.028" height="34" rx="17" ry="17" transform="matrix(1, 0, 0, 1, 7.105427357601002e-15, 0)"/>
  <rect style="stroke: rgb(0, 0, 0); stroke-width: 0px;" x="210.986" y="260.2" width="78.028" height="34" rx="17" ry="17" transform="matrix(1, 0, 0, 1, 7.105427357601002e-15, 0)"/>
  <ellipse style="stroke: rgb(0, 0, 0); stroke-width: 0px; fill: rgb(81, 45, 208);" cx="271.894" cy="227.207" rx="15.5" ry="15.5" transform="matrix(1, 0, 0, 1, 7.105427357601002e-15, 0)"/>
  <ellipse style="stroke: rgb(0, 0, 0); stroke-width: 0px; fill: rgb(81, 45, 208);" cx="228.041" cy="277.109" rx="15.5" ry="15.5" transform="matrix(1, 0, 0, 1, 7.105427357601002e-15, 0)"/>
</svg>